<?xml version="1.0" encoding="utf-8"?>
<!-- Generator: Adobe Illustrator 23.0.0, SVG Export Plug-In . SVG Version: 6.00 Build 0)  -->
<svg version="1.1" id="图层_1" xmlns="http://www.w3.org/2000/svg" xmlns:xlink="http://www.w3.org/1999/xlink" x="0px" y="0px"
	 width="500px" height="500px" viewBox="50 50 400 400" style="enable-background:new 0 0 500 500;" xml:space="preserve">
<style type="text/css">
	.st0{fill:#ffffff;}
</style>
<g>
	<path class="st0" d="M337.669,338.102c6.625-6.959,11.819-16.793,13.374-30.644v-7.997h-13.675
		c4.901-5.708,7.535-9.669,10.227-15.975v-8.705h-53.511c-2.274,0-4.109,1.823-4.116,4.101l0,0v4.604h6.287v27.878
		c0,14.794-6.162,23.388-13.594,29.87v13.033c9.944-3.144,22.728-13.374,27.21-30.097c2.626,4.779,5.634,9.449,9.347,13.686
		c-5.249,3.925-11.291,6.24-17.589,7.248v9.559c6.291-0.682,16.697-2.751,26.381-8.77c6.482,4.714,14.64,8.279,25.252,10.051v-9.901
		C347.037,344.066,341.961,341.355,337.669,338.102z M328.051,328.444c-6.903-8.972-11.269-19.885-16.536-30.849v-14.108h19.915
		c-1.735,4.996-3.276,9.791-9.145,15.975v7.997h13.499C334.372,316.064,331.653,322.985,328.051,328.444z"/>
	<path class="st0" d="M198.572,298.016h39.044v-9.805h-39.491v-17.064h-18.862v17.064H143.88c-2.282,0-4.119,1.838-4.119,4.112
		v5.693h39.055c-6.243,23.946-16.155,40.317-41.296,44.894v11.401c13.836-1.566,23.682-5.557,31.333-11.225
		c6.654,2.586,13.381,5.297,23.44,9.167v-13.73c-5.099-1.471-6.992-1.893-14.621-3.61c0.044-0.055,0.381-0.477,0.437-0.532
		c3.936-4.589,7.303-9.765,10.583-15.293c10.59,17.842,21.983,31.939,51.171,35.222V342.91
		C214.712,338.333,204.801,321.962,198.572,298.016z"/>
	<path class="st0" d="M278.843,291.479h9.328v-9.082h-9.423v-11.621h-15.271v11.621H255.7c-2.274,0-4.119,1.838-4.119,4.112
		c0,0.04,0.008,4.97,0.008,4.97h9.787c-1.288,11.28-3.1,19.122-11.669,28.509v13.238c6.559-4.237,10.968-9.438,13.77-13.429v34.866
		h15.271v-41.024c4.093,5.311,7.391,7.806,11.419,10.531v-10.462C279.72,303.573,279.4,295.074,278.843,291.479z"/>
</g>
<path class="st0" d="M175.8,144H93.806C86.733,144,81,149.565,81,156.446V162h34v66h26v-66h27.727L175.8,144z M251,228h26v-84h-26
	V228z M351,144v84h25v-84H351z M313,144v63.807c0,2.299-1.934,4.164-4.335,4.193h-20.87l6.411,16h24.414
	c11.255,0,20.38-8.615,20.38-19.262V144H313z M195.992,144c-5.47,0-10.125,3.266-11.977,7.867L153.502,228h22.067l7.492-21h0.022
	c14.017,2.265,26.056,10.08,33.519,21h26.923l-33.222-84H195.992z M185.411,200l10.649-29.855L206.698,200H185.411z"/>
</svg>
